<svg id="Layer_1" data-name="Layer 1" 
    xmlns="http://www.w3.org/2000/svg" viewBox="0 0 1480 714">
    <defs>
        <style>
        path {
          fill: transparent;
          cursor: pointer;
          transition: fill 0.2s
        }
        svg a:focus,
        svg a:hover {
          outline: none;
        }
        svg a:focus path,
        svg a:hover path {
          fill: rgba(30,222,121, 0.25);
          cursor: pointer;
       }
        </style>
    </defs>
    <title>women-sport-go</title>
    <rect id="background" width="1480" height="714" style="fill:transparent;"/>
    <g>
        <a href="#" onclick="alert('shoe');">
            <title>Shoe</title>
            <polygon id="shoe-left" class="cls-1" points="628.92 648.98 628.92 676.51 622.57 693.45 632.45 701.92 654.34 701.92 663.51 696.28 663.51 682.87 657.87 665.22 659.28 648.98 657.87 644.04 653.63 638.39 640.92 635.57 631.04 641.92 628.92 648.98"/>
        </a>
    </g>
    <g>
        <a href="#" onclick="alert('shoe');">
            <title>Shoe</title>
            <polygon id="shoe-right" class="cls-1" points="800.45 646.87 782 646.87 777.87 627.81 770.1 624.98 770.1 632.75 765.16 646.87 757.39 654.63 762.34 668.75 787.75 682.87 800.45 696.28 820.22 701.92 839.28 705.45 847.04 698.39 847.04 691.34 825.16 675.1 826.57 668.75 820.22 650.39 832.22 629.22 829.39 624.98 812.45 635.57 802.22 640.51 800.45 646.87"/>
        </a>
    </g>
    <g>
        <a href="#" onclick="alert('hoodie');">
            <title>Hoodie</title>
            <polygon id="hoodie" class="cls-1" points="589.4 377.93 595.75 376.51 605.28 377.93 608.81 383.22 608.81 381.45 608.81 369.1 632.1 365.22 663.51 365.22 688.92 363.45 719.63 360.63 746.81 357 755.28 355.34 762.34 355.34 752.1 339.1 751.39 326.75 749.63 326.75 751.39 320.39 751.04 314.39 750.34 290.75 746.45 269.22 748.92 249.1 753.51 256.16 769.04 260.04 777.51 256.16 784.57 249.1 787.75 237.1 787.75 225.45 783.51 218.4 782.45 202.87 782.45 183.81 782.45 162.98 779.98 141.1 775.75 124.87 773.28 122.75 770.45 119.22 762.34 116.04 754.92 113.22 752.45 108.98 741.51 102.28 732.34 104.04 725.98 107.92 711.16 116.75 703.39 117.1 699.51 117.81 694.92 119.57 691.04 124.51 684.69 122.4 679.75 119.92 675.16 118.51 668.45 118.87 650.45 120.98 634.22 126.98 628.22 136.51 626.1 140.75 618.69 146.75 612.69 160.51 613.04 180.28 615.51 190.87 613.4 207.1 610.92 226.16 610.22 238.16 611.63 242.75 607.75 249.1 606.34 256.51 606.69 265.34 605.28 277.34 605.98 284.04 602.45 303.81 604.22 306.98 601.75 309.45 597.51 324.63 598.22 329.93 595.4 334.51 592.92 340.16 591.16 357 587.63 370.51 587.63 380.39 589.4 377.93"/>
        </a>
    </g>
    <g>
        <a href="#" onclick="alert('joggers');">
            <title>Joggers</title>
            <polygon id="joggers" class="cls-1" points="631.75 631.34 640.92 635.57 654.34 631.34 654.34 564.28 654.34 536.04 667.75 488.75 667.75 461.92 679.04 384.28 684.5 380.75 710.81 405.45 747.51 464.75 768.69 503.57 768.69 536.04 768.69 565.69 775.04 579.81 777.87 617.22 777.87 627.81 786.34 632.75 803.28 631.34 808.22 627.1 815.28 545.22 815.28 500.75 815.28 479.57 808.22 461.92 782 399.81 765.87 361.69 763.75 357 606 370 617.63 468.28 619.04 496.29 613.4 540.28 620.45 592.51 631.75 631.34"/>
        </a>
    </g>
</svg>