<svg id="ills" xmlns="http://www.w3.org/2000/svg" viewBox="0 0 1482 807"><path class="canvas" d="M0 0h1482v807H0z"/><a href="#"><path id="kid_cap" class="shape" d="M613 142.7l13.5-11.6 23.8-3.4 38.5 7.5 8 5.4 1.2 17.7h12.5l-1.2 12.5-7 8H720l15.3-7.4 10.4-10.7 1.5-3.3-9.5-8-24.4-7.6-1.5-14L709 114l-5.2-11.3L693.4 90l-21.7-5.5-21 1.5-13.2 4.6-11 7.7-10.8 15.3-2.7 10v19z"/></a><a href="#"><path id="girl_cap" class="shape" d="M812 164.4l-2.1-7.3 5.8-10.4v-8.9l5.2-24.1 15.9-21.5 20.5-7.6 21 1.5 23.3 11.4 8 9.1 3 18v16.6l1.5 9.5-1.5 6-2.4 1.3-1.6-16.2-9.7-12-28.5-5.3-16.8 1.4-19.3 5.8-13.7 7-3 2.2-1 8.2-.6 10.1-4 5.2z"/></a><a href="#"><path id="kid_hoodie" class="shape" d="M470.5 350.6l-15.6-12-8.2-10.6 29.6-37.3 44.4-45.6 7-2.7v-4.3l13.7-7 38.3-35.1 1.5-5.6 14.3-8.5h17.8l6 12.8 8.7 5.2 7.9 12.6 14.7 13.1 6.7 4.3 9.8-.6 2.4-1L695 221l6.2-9.2-7-5.5 7 .3 4.2 5.8h2.8l1.5 3.7 16.2 13.8 9.5 16.8 3.4-.3 2.3 6.7-1.7 29.4 5.2 50 4.3 2.2v4l8.5 19.3-7.6 38.2L746 413l-5 24.8-3.3 12.5s-1.8-.6-2.7 0-2.1-5.8-2.1-5.8l-6.2-12.2-11.3-51.4 4.3-24.2-6.7-9.8-3.7-10 .7-23-4.3-1.8-5.8-5-8.3 24.9-6.7 11.6-4.9 3-4 33-4.9 30-7.3 8.3-4 8-24.2-1.9-38.5-3-39.4-14.7L524 374l-6.4-6.7 17.1-15.6-1.2-5.8 12.5-12.5 8-27.5 7.7-6.7s.2-3 .9-4l11.6-15.3 1.5-4.9 1.5-12 5.2-11.2-6.7 9.4-12 7-6 4h-2.8l-2.4 10.1-6.8 9.8-10.4 6.1 2.5 3.1-8 5.2-5.5 5.8-9.8 1.5-7 7-25.6 20.8z"/></a><a href="#"><path id="girl_hoodie" class="shape purple" d="M774.7 439l-6.4 4.6-11-2.3-7.6-4.1-8.7-3.1 4.2-17.4 8-38.1 4.7-21.9s10.1-10 10.1-11 1.2-9.5 1.2-9.5h3l10.8-67 2.1-18.6 6.1-21.4 19.3-15.6s20.8-7 22.3-7.3 7 10 7 10l11 4.6 10.7-5.2 10.7-9.4 12.6-7 6.4-4.3 11.9-4.6 4-8.6 1.9-10.4 12.5-1.2v8.6l6.1 3-2 5.5 5.1 2.5 1.5 4 4-1.2s.6 2.7 1.6 2.7l5.8.3v-8l4.9 4.6-5 6.8-2.1 12.5-1.9 6.8 6.8 31.7.6 2.8-2.2 1.2 24.8 75.8v18.7l-5.8 12.5-8 8.3-57.2 48.6-23.2 2.7-7-1.2 2.8-6.1-8.9-9.8-9.8-22.6-2.7-5-.7-14.6-3.6-4.3-6.5-15.3 3-1.5-8.8-9.8-35.1 66.4-16.5 29.3-5.5 7z"/></a><a href="#"><path id="kid_pants" class="shape" d="M517.3 370.5l-33.6 24.4-34.6 34.6-5.8 11.9-4 14.4 5.2 16.2 14.7 15.9 19.1 21.4 10.9 11.9 23 12.5 15.5 2.8 2.8-2.8 14.3-3.3 6.4-4.6 2.8-8v-9.7l-5.5-1 .6-8.5-7-7.4-5.5-.9-2.8-4-2.7-.6-17.2-17.7-1.5-8.6 17.4-11 26.3 5 9.5 11.9 10.1 11 8.3 11L604 534 617 588l3.6 42.8v10l-3 4.6 8.5 4 3.7 8-2.1 6.7-.3 4.3 26.6 4 3.3-8v-7l4.6-3.1 2.8-4.9v-10.4l4-14-2.8-7 2.7-45 2.8-24.2-8-8-.3-4.8 4.6-8.6-6.4-4 3.7-22.9-2.5-16.2.6-18.3-2.7-8 1.8-6.1-2.7-4.3 4-4-2.5-6-.6-9.3-33.3-4.9-28.5-2.3-41-14.8-40.3-35.7z"/></a><a href="#"><path id="girl_pants" class="shape red" d="M869.8 419.6l2.5 14.2-2.5 8.5 6.1 20.5 5 31.8v30.6l-8.6 29-6.8 27-2.4 28.3-5.8 21.1 4.6 12.6 7.2 2.4-3.3 10.1-3 2.8 1.2 4.3 14.7 6 12-3.6 5.7-5.2-2.4-3.7-.6-8 4.9-2.4 4-8.9 41.5-118.5 6.1-9 23.2-45.8 11.4-18.3 30.5-20.2-24.1 25.1-2.2 8.2 1.5 5.5-10.4 13.8 3.7 6.4 12.2 7.7 10.4 2.7 8.9-13.5 5.2-1.2 4.6-.9s17.7-20.2 18.6-20.8 29.4-28.7 29.4-28.7l8.5-3.7 7.7-11.3 4.9-18-6.1-13.8-8-5.8-20.1-8.9h-9.8l-10.1-5.5-38-12.2-17.3-3-15-3.2v4.3l-5.8 12.6-65.2 56.9-23.2 2.7z"/></a><a href="#"><path id="kid_shoe_left" class="shape" d="M522.9 535.6l-1.6 8.5v10.1l-3.7 4-1.5 8.3 1.8 3-8.5 15-3.1 7V605l12 3h11l12.5-10.4 10.7-8.9 10-24.1 13.2-15.6 8.9-15.6-3-8.9-9-3.2-9.7-9.6 5.2-1.2-1.6-2.5h-9.1l-3.4 3.4 4 2.2s3.4 10 3.4 11-2.8 8.5-2.8 8.5l-10.4 1.5-2.7 2.8-3.6-6.3-11.4 2.6-4.1 2.5z"/><path id="kid_shoe_right" class="shape" d="M628 732.1l6.7 7H659l12.5-3.4 2.4-6-4.2-20.5-4.3-6.7v-5.2l-3-4.3-1.3-13.4-3-5.8-7-3.1-19.5-1.8-6 3.3-6.7 8.9v12l3.7 9.7 4.6 14.7.9 14.6z"/></a><a href="#"><path id="girl_shoe_left" class="shape white" d="M862.8 672L852 695.4l-1.9 11.3 3.7 7.3 3.4 5 11 15.5 14 4.6h18.4l8.8-2.2-1.2-15-3-11.3-1-8.2S901 696 901 695s-1.8-10-1.8-10l-1.9-5.5-14-6.5-13.8 6.8-1.2 3.3-8.3 3.4z"/><path id="girl_shoe_right" class="shape" d="M948 512.3L958 523l30.5 31 20.8 12.5 6.1-6.2V551l-4.8-8-.4-6.1-3.6-10.7-1-5.2-1.2-12.5-4.2-7-2.2 2.7-.9 4.3-12 .3-9.4-10.1v-12l-4-4.5-8 4.2-5.4 1.9-10.2 24z"/></a><a href="#"><path id="kid_glasses" class="shape yellow" d="M617.8 171.7l-4.8 11.2 4.8 6.9 1.6 4.9 8.6 5.2s5 2 6.6 1.8 7-5.5 7-5.5l3.7-9.5h4.4l3.2 9s9.4 7.4 10.8 7.2 10 0 10 0l7.9-6.5 2.7-5.5v-2.3l3.7-3.2 11.9-19.7-4.3 1.6-9.2 14.5-1.6 3.6-1.9-1.1-6.2-4.4-23.6-1.1h-34.6l-2 1.6 3-6.5-.5-3.7z"/></a><a href="#"><path id="girl_glasses" class="shape yellowgreen" d="M849.9 181.8l-5.3-8.8-1.6-8.6 3.4-6-19-12.9V143l24 11 21.9 8.4 2.3 5.6 6.8 1.2 7.8-1.9 7.6 1.2 7.1 1.7 5 4.2-1.3 6.4-5 8.5-12.4 5.7-8-5.4-6-7.8 1.3-9.7-2.5.3-7.3 6.4-10.8 5.5-8-2.5z"/></a></svg>
