<svg data-name="Capa 1" xmlns="http://www.w3.org/2000/svg" viewBox="0 0 1480 714"><path class="canvas" d="M0 0h1480v714H0z"/><a href="#"><path class="shape orange" d="M590.5 379h-3l3-15.6 2.3-10.3v-11.9l2.7-6.5 3-16 4.6-17.2 3.5-19.1 3.4-5-3.4-5.3-2.7-4.2 4.6-18 1.5-9.6 4.2-37.4V157l2.7-9.1 10.3-7.7-2.3-5 5-4.5v-8l14.5-8.9 15.3-1.9 9.6 4.6 11.4 3.8 8.4 4.2 5.4-4.2 7.6-3 8.4-1.2 8-2.6 7.7-7 8.4-4.9h9.2l8.8 7.7 6.5 6.5 11.4 3.8 5.8 6.5 5.7 19.8v73.4l4.6 5.8v21.7l-16.8 13.8-11.9-3.8-7.6-3.5-.4-3-2.7 8-.4 20.3 4.3 22.5 1.1 21.4-3.8 3 3 2-1.5 9.1 3 4 2 2.8 7.2 9.7-22.1 3.2-19.9 2.9-16.8.8-14.9.8-8.8.4-12.6.7-3 1.1-46.3 2.7-6.1-4.2-3.5 7.6v14.5l-6.9-6.8-10.7 2.3z"/></a><a href="#"><path class="shape white" d="M608.5 371.8l7.3 44 3.4 45v24.5l-2.3 31-.7 12.2.7 27.9 5.7 47.8 8.8 29.4 10.7 1.5 13-2.7v-47.7l2.7-34s-2.3-21-2.3-19.9 12.6-41.3 12.6-41.3l2.7-46.2 4.2-37.1 4.2-23.7h10.3l19.5 21 5.4 11.5 13.7 22.6 21.8 28.6 5.3 11.8 15 25.5-3.9 27.3.8 18 6.5 27.9 2.3 29.8 2.3 21 7.2 3.8 9.2 1.5 11.1-2.6 3.4-3 5.4-75.8v-26.7l1.9-31.7-3-16.8-19.5-52-13.8-31.8-8.4-18-10.3-19.4-38.6 5.7-34.8 3-26.4.8-29 .4-16 2.3z"/></a><a href="#"><path class="shape" d="M636.4 704.3c1.1.8-11.8-6.9-11.8-6.9v-18.7l3.8-16.8 2.1-12.3 2.5-8.4 9.1-4.2h14.2v10l2.7 3v14.5l3 14.6 2.7 14.5v5.3l-5 2.7-12.3 2.7h179.3l-20.2-2.7-16.8-14.1-3.1-5-15.3-9.5-14.1-10.7-.4-7.6 13-13.4 4.6-10.7-4.2-8.4 8 5.3 1.5 13.8 5.3 5.7 11.1-1.5 5.8 2.3.7-8.8 12.2-3.8 1.6 8.8 6.1-11.5 10-3.8-6.6 5-7.2 11.8 2.6 9.2 3.5 13.3 7.6 12.6 5.8 3.8 3.8 4.6 5.3 6.5-1.9 7.3-12.2 1.5z"/></a></svg>