<svg data-name="Capa 1" xmlns="http://www.w3.org/2000/svg" viewBox="0 0 1482 715"><path class="canvas" d="M0 0h1482v715H0z"/><a href="#"><path class="shape" d="M597.8 245.4h35.3l9.2 2.3V266l-3.7 5.5 1.9 17.9-1 27.5 2.8 10v21.6l-2.8 15.6 11 11v7.4l7 7.3 30.2 4.6h33.5l30.7-3.2 29.8-3.7 10.6-6.9 12.4-6.4v-13.7l-8.8-6.4-3.2-18.9-7.8-28.4-4.6-23.8-2.3-26.2-1.8-22 4.1 5 36.3-8.2 1.8-3.7-3.2-12.3-6.4-21.6-5-21.6-8.3-17.4-13.8-10-22.5-14.8-4.5-4-10.6-2.4-5-4.1-5-2-6-2.6 5.5 5-4.6 7.9-7.4 9.1-13.5 1-15.8-2.8-13.8-8.7-3.2-8.3 2.8-3.2-8.7 6.4-13.3 7.8-12.4 7.8-6 5.5-13.7 6-7 6.9 1.5 3.6-17 27.1v22l-3.7 13.8v23.3z"/></a><a href="#"><path class="shape" d="M674.9 642l20.1-1.8 8.3 1 2.3-17 4.1-22V565l3.2-7.3-3.2-17.5 3.2-4.6-6.9-16 7-4.6 4.5-38.5 1.9-27.5 6.8-31.2L741 443l16.9 36.2 3.6 2.3v13.3l6 6-4.1 5 .4 10.6 3.7 4.6-4.1 3.2v31.2l4.1 28.9 4.6 20.6 3.7 8.7v9.6l6 13.3 1.8 12h3.2l11 2.3 15.1-3.7 6.9-3.7-4.6-14.6 4.6-10.1-6.9-6.5 4.6-4.6-4.1-20.6v-46.8l2.3-10.5-4.2-6.4 5-3.7v-13.8l3.3-22.4-5-10.6 2.2-9.6-.9-37.6-3.6-23-2.8 1.9-6.4-7.4.4-4.5 5.5-6.5-18.8-4.5-7.8 4.5-35.3 6-24.7 1.4-24.8.4-25.7-.9-14.2-3.2-6 3.7v10l5 8.3 8.8 9.2-1.4 4.6-4.1-.5-8.3-4.6 8.3 38.1 2.7 18.8-1.8 13.8 6 17-2.8 8-.9 5.2-3.7 7.8 4.2 40.4 3.6 22-3.6 22.5 6.8 9.6 2.8 3.7 1.4 14.6z"/></a><a href="#"><path class="shape" d="M711.3 676.3l-3.1-8.7-1.2-9-5.7-11.3-1.8 4V646l-7-4.9-9.2 1.2-6.9 1.9-3.6 7-5 6-5.4 2.4-4 7.5 2.7 2.1-2.7 7-9.2 5.7-3.2 3.9-4.6 6.5-1.5 7.5 1.2 5.8 3.7 2.3 9.8 1.7 14.2-1.8L679 704l7.7-7.2 3.6-3.7 10.4-6.2 10.5-6.9v-2.1l65.2.1-1.1 5.5 1 6.6s6.2 3.7 6.6 3.7l15.3.4 21.3 1 19.7 4 18.5 1.4 15.7-1.5 7.8-4.1 4.2-6.1-1-5-3.8-4-15.9-4.5-13-4.1-6.4-6.4-8.8-10.6-11-8.5-7.4-2.3-7.2 6-6.9 9-7.8 1.5-9.3-2.5-2.9-1.9-2.1 3-1.6 4.8-1.2 3.6-.3 8.4-1.2 2.1h-67.4z"/></a></svg>